<?xml version="1.0" standalone="no"?>
<!DOCTYPE svg PUBLIC "-//W3C//DTD SVG 20010904//EN"
 "http://www.w3.org/TR/2001/REC-SVG-20010904/DTD/svg10.dtd">
<svg version="1.0" xmlns="http://www.w3.org/2000/svg"
 width="1111.000000pt" height="1111.000000pt" viewBox="0 0 1111.000000 1111.000000"
 preserveAspectRatio="xMidYMid meet">
<metadata>
Created by potrace 1.11, written by Peter Selinger 2001-2013
</metadata>
<g transform="translate(0.000000,1111.000000) scale(0.100000,-0.100000)"
fill="#000000" stroke="none">
<path d="M960 8142 c-55 -4 -90 -22 -107 -56 -15 -28 -16 -180 -16 -1653 0
-893 -3 -1624 -6 -1624 -3 -1 -70 -2 -147 -3 -156 -2 -185 -11 -207 -66 -9
-20 -12 -129 -12 -373 0 -332 1 -347 21 -373 11 -15 35 -32 54 -39 26 -8 303
-11 1025 -10 874 1 1059 5 1140 21 11 2 34 7 50 9 71 13 187 49 273 86 323
138 553 370 668 675 80 212 80 498 0 693 -95 234 -343 470 -633 603 -51 23
-93 46 -93 51 0 4 8 11 18 14 52 20 217 140 312 228 281 260 395 561 334 884
-93 494 -550 870 -1124 927 -56 6 -1487 11 -1550 6z m1385 -874 c124 -27 231
-111 287 -226 31 -62 33 -73 33 -172 0 -102 -1 -109 -37 -181 -57 -115 -141
-190 -254 -227 -53 -17 -90 -19 -366 -19 l-308 0 -1 26 c0 37 -1 795 0 802 1
10 600 7 646 -3z m97 -1639 c133 -52 236 -140 286 -247 23 -49 27 -70 27 -152
0 -89 -2 -100 -36 -170 -42 -87 -83 -134 -158 -184 -98 -66 -125 -70 -509 -71
-192 0 -346 4 -349 9 -4 6 -7 720 -4 829 1 18 18 18 339 15 334 -4 338 -4 404
-29z"/>
<path d="M5595 8138 c-11 -7 -26 -17 -33 -24 -11 -12 -159 -323 -325 -684 -13
-30 -44 -95 -67 -145 -23 -49 -84 -180 -135 -290 -90 -193 -124 -268 -201
-432 -20 -43 -49 -105 -64 -138 -15 -33 -53 -113 -84 -179 -31 -65 -56 -119
-56 -121 0 -2 -23 -52 -51 -112 -28 -59 -64 -135 -79 -168 -48 -105 -95 -204
-200 -430 -56 -121 -112 -242 -125 -270 -13 -27 -46 -98 -74 -157 -27 -59 -60
-128 -72 -155 -12 -26 -68 -147 -124 -268 -56 -121 -113 -242 -125 -270 -13
-27 -40 -86 -61 -129 -24 -49 -39 -93 -39 -116 0 -44 28 -84 67 -97 16 -5 190
-9 388 -8 405 2 417 4 478 75 17 21 59 98 91 171 33 74 83 186 112 249 67 150
66 146 249 555 86 193 174 388 195 435 21 47 68 153 105 235 37 83 83 183 101
223 19 41 34 75 34 77 0 2 16 39 36 82 82 176 124 274 124 285 0 31 34 -32
125 -232 54 -118 115 -251 135 -295 21 -44 52 -111 69 -150 18 -38 54 -117 80
-175 27 -58 47 -107 45 -109 -1 -1 -141 -3 -311 -4 -169 0 -319 -4 -333 -9
-45 -17 -68 -49 -118 -167 -207 -484 -214 -503 -209 -544 3 -22 15 -49 27 -61
20 -21 25 -21 666 -24 l645 -2 8 -23 c5 -12 30 -66 55 -120 25 -55 46 -100 46
-102 0 -3 70 -156 111 -242 30 -63 82 -110 132 -120 23 -5 204 -9 402 -8 336
1 362 2 388 20 41 27 63 103 39 130 -5 6 -18 33 -30 60 -11 28 -46 104 -77
169 -31 65 -65 140 -77 165 -17 39 -201 433 -321 691 -19 41 -80 172 -135 290
-55 118 -118 253 -139 300 -22 47 -50 106 -61 131 -12 25 -46 99 -77 164 -30
64 -55 118 -55 120 0 1 -27 61 -61 131 -34 71 -83 176 -109 234 -27 58 -69
150 -95 205 -85 181 -161 345 -202 435 -14 30 -47 101 -74 158 -27 56 -49 104
-49 107 0 2 -34 74 -75 160 -41 87 -75 158 -75 160 0 1 -24 54 -54 116 -29 63
-63 134 -74 159 -25 54 -40 73 -69 88 -28 15 -132 15 -158 0z"/>
<path d="M8507 8143 c-1 -1 -42 -3 -91 -4 -142 -3 -257 -53 -359 -155 -64 -64
-120 -163 -140 -251 -12 -52 -14 -340 -14 -1875 -1 -1962 -4 -1857 53 -1895
26 -17 57 -18 415 -18 377 0 389 1 416 21 15 12 34 32 40 45 10 18 13 203 13
797 0 728 1 772 18 772 9 1 181 1 381 1 459 0 424 -13 506 184 21 50 45 108
55 130 10 22 30 69 45 105 15 36 37 88 49 115 44 99 65 160 62 185 -2 14 -4
32 -5 40 -1 8 -16 25 -34 37 -32 21 -35 22 -537 22 -278 0 -513 1 -522 1 -17
0 -18 27 -18 430 l0 430 735 0 c404 0 737 0 740 0 16 -1 66 34 83 57 11 16 63
132 117 258 53 127 103 244 110 260 62 139 65 149 69 204 3 37 -30 85 -66 97
-17 5 -2116 13 -2121 7z"/>
<path d="M7420 3300 c-13 -8 -15 -54 -16 -302 -1 -161 2 -300 6 -308 6 -11 21
-14 59 -12 l51 4 0 191 1 192 60 -65 c34 -36 79 -85 101 -110 163 -182 202
-221 222 -218 19 3 20 10 19 306 0 166 -3 305 -7 309 -8 8 -96 6 -104 -1 -2
-3 -4 -87 -4 -187 l0 -183 -117 124 c-242 258 -255 271 -271 260z"/>
<path d="M557 3288 c-14 -7 -18 -591 -4 -604 4 -5 65 -7 136 -7 144 2 195 16
236 64 63 76 47 184 -34 232 l-31 18 35 30 c84 74 63 199 -41 250 -39 18 -64
22 -166 23 -66 1 -125 -2 -131 -6z m245 -126 c28 -27 28 -77 1 -104 -16 -15
-35 -21 -82 -22 l-61 -2 0 71 c0 39 2 74 5 77 3 2 30 4 60 3 42 -1 61 -6 77
-23z m0 -246 c28 -19 33 -28 32 -58 -2 -55 -23 -70 -105 -74 l-69 -3 0 79 0
79 55 0 c40 0 63 -6 87 -23z"/>
<path d="M1087 3288 c-9 -5 -12 -65 -11 -220 0 -196 2 -217 22 -259 64 -137
248 -182 371 -90 35 27 79 88 88 125 3 11 6 115 7 230 2 201 1 208 -19 216
-11 4 -38 5 -60 1 l-40 -6 0 -206 c-1 -177 -3 -210 -18 -233 -56 -84 -172 -78
-218 12 -13 25 -16 69 -17 228 -1 109 -4 199 -7 202 -8 8 -85 8 -98 0z"/>
<path d="M1774 3281 c-86 -40 -122 -134 -84 -219 21 -47 61 -79 153 -123 101
-47 128 -91 88 -140 -26 -32 -84 -30 -150 5 -28 14 -54 26 -59 26 -5 0 -19
-19 -32 -41 l-23 -42 24 -19 c87 -68 238 -76 320 -16 61 46 82 134 48 204 -22
46 -93 100 -163 125 -49 17 -106 69 -106 97 0 26 45 62 77 62 14 0 47 -11 75
-25 27 -14 55 -25 61 -25 17 1 57 67 51 83 -2 8 -26 24 -52 37 -66 32 -172 38
-228 11z"/>
<path d="M2269 3290 c-102 -30 -151 -152 -98 -240 30 -48 51 -64 135 -105 87
-41 114 -65 114 -103 0 -68 -79 -85 -168 -37 -58 31 -70 28 -93 -27 -12 -29
-11 -32 14 -54 15 -13 51 -30 79 -39 171 -51 312 36 295 182 -7 68 -47 110
-161 168 -109 56 -134 83 -113 126 8 15 26 27 48 33 30 7 46 4 93 -18 32 -15
63 -25 70 -23 6 3 20 21 31 41 l20 37 -25 19 c-56 43 -170 62 -241 40z"/>
<path d="M2853 3288 c-5 -7 -38 -76 -73 -153 -35 -77 -86 -187 -113 -245 -107
-230 -106 -218 -26 -210 54 5 54 5 78 58 l24 52 129 0 128 0 26 -52 c15 -29
30 -55 35 -58 5 -3 30 -3 56 0 35 4 47 10 45 20 -3 12 -101 230 -182 405 -10
22 -35 75 -54 118 -34 75 -53 91 -73 65z m24 -396 c-44 -2 -81 -1 -83 1 -3 2
14 44 37 93 l41 89 42 -90 42 -90 -79 -3z"/>
<path d="M3240 2991 l0 -309 23 -4 c12 -2 38 -1 57 2 l35 5 2 175 c0 96 2 182
2 190 1 10 12 3 33 -20 17 -19 71 -78 120 -131 49 -53 98 -107 109 -120 64
-74 102 -109 120 -109 18 0 19 10 19 309 0 217 -3 310 -11 313 -6 2 -32 1 -58
-2 l-46 -5 0 -184 0 -184 -113 119 c-62 65 -143 152 -180 192 -45 50 -73 72
-89 72 l-23 0 0 -309z"/>
<path d="M4303 3288 c-14 -18 -273 -585 -273 -598 0 -6 25 -10 58 -10 l57 0
24 55 23 55 130 0 129 0 25 -55 c14 -30 31 -55 37 -56 31 -3 93 3 99 10 4 3
-3 27 -15 51 -12 25 -32 68 -44 95 -12 28 -37 84 -56 125 -20 41 -62 134 -95
205 -57 125 -78 151 -99 123z m64 -308 l41 -90 -85 0 c-46 0 -83 4 -81 9 22
57 74 171 79 171 3 0 24 -40 46 -90z"/>
<path d="M4705 3290 l-30 -5 -1 -205 c-2 -234 6 -274 73 -342 74 -76 206 -90
299 -32 51 31 100 98 111 150 6 34 8 422 1 429 -8 9 -52 12 -82 5 l-31 -6 -1
-194 c0 -107 -4 -206 -8 -220 -11 -32 -60 -80 -83 -81 -10 0 -26 -2 -35 -4 -9
-2 -34 6 -56 16 -64 32 -71 61 -70 287 0 106 -2 196 -6 199 -8 8 -43 10 -81 3z"/>
<path d="M5268 3292 c-26 -3 -28 -7 -26 -45 0 -23 5 -47 9 -53 5 -6 37 -10 74
-9 l65 2 1 -61 c0 -34 0 -147 0 -252 l0 -192 32 -3 c18 -2 44 -3 60 -1 l27 3
0 250 c0 158 4 249 10 250 6 1 38 2 73 3 l62 1 3 53 c3 48 1 52 -20 53 -74 3
-347 3 -370 1z"/>
<path d="M5910 3284 c-134 -48 -217 -176 -208 -319 8 -122 70 -212 182 -266
53 -25 69 -28 140 -25 92 3 155 29 217 89 63 63 84 118 84 221 0 76 -4 99 -24
138 -32 62 -84 114 -145 145 -65 34 -179 41 -246 17z m196 -125 c97 -46 136
-175 82 -271 -73 -130 -262 -134 -340 -7 -72 117 -7 270 126 299 42 9 83 2
132 -21z"/>
<path d="M6657 3292 c-9 -2 -17 -9 -18 -15 -4 -67 -2 -582 3 -590 6 -10 96
-12 106 -2 2 2 4 53 5 114 0 71 4 111 11 114 6 2 55 3 109 2 54 -1 101 3 104
8 11 18 12 86 2 93 -6 4 -60 6 -119 6 l-107 0 1 81 1 82 130 1 c72 1 133 2
138 3 11 2 5 91 -6 98 -11 7 -330 11 -360 5z"/>
<path d="M7153 3292 l-23 -3 0 -304 c0 -212 3 -304 11 -307 6 -2 32 -1 58 2
l46 5 2 297 c1 190 -2 300 -8 304 -13 7 -56 10 -86 6z"/>
<path d="M8261 3268 c-8 -18 -38 -84 -68 -146 -29 -62 -53 -115 -53 -117 0 -2
-29 -65 -65 -141 -36 -75 -68 -147 -71 -160 -7 -26 8 -31 69 -25 36 3 41 7 64
57 l24 54 129 0 129 0 26 -55 c20 -41 32 -55 48 -56 32 -2 81 2 89 7 4 2 -9
39 -29 82 -19 42 -44 97 -55 122 -12 25 -40 87 -64 138 -24 52 -44 95 -44 97
0 2 -18 42 -41 89 -45 95 -65 107 -88 54z m72 -281 c20 -45 37 -85 37 -89 0
-5 -36 -8 -81 -8 -44 0 -79 4 -77 9 21 54 74 171 78 171 3 0 22 -37 43 -83z"/>
<path d="M8660 2991 l0 -309 46 -4 c25 -2 51 0 57 4 8 5 12 62 13 190 1 101 2
185 3 188 0 3 11 -6 24 -20 34 -38 207 -229 249 -275 20 -22 47 -52 60 -67 13
-16 34 -28 46 -28 l22 0 0 310 c0 199 -4 310 -10 311 -42 3 -89 1 -97 -4 -7
-4 -11 -66 -11 -159 0 -84 -1 -165 -1 -179 -1 -25 -7 -21 -73 49 -155 163
-236 248 -260 275 -14 15 -35 27 -47 27 -21 0 -21 0 -21 -309z"/>
<path d="M9503 3282 c-136 -48 -216 -168 -208 -314 4 -79 29 -140 80 -196 105
-117 310 -134 422 -36 l38 33 -38 38 c-32 32 -40 36 -55 26 -140 -99 -324 -13
-324 151 0 169 175 260 315 163 l28 -19 35 37 c19 21 34 41 34 44 0 12 -58 51
-103 70 -57 24 -159 26 -224 3z"/>
<path d="M9975 3290 l-40 -5 0 -298 c0 -170 4 -301 9 -305 12 -7 362 -6 374 2
14 8 13 84 -1 93 -6 4 -68 8 -137 8 l-125 0 0 75 0 75 108 0 c76 0 110 4 116
13 8 14 5 81 -5 91 -3 3 -49 7 -102 7 -54 1 -103 2 -109 3 -9 1 -13 21 -13 66
0 45 4 65 13 66 6 1 64 2 127 3 63 1 121 5 128 9 15 10 16 83 0 93 -13 8 -283
11 -343 4z"/>
</g>
</svg>
